<?xml version="1.0" encoding="UTF-8" standalone="no"?>
<svg
   xmlns:dc="http://purl.org/dc/elements/1.1/"
   xmlns:cc="http://creativecommons.org/ns#"
   xmlns:rdf="http://www.w3.org/1999/02/22-rdf-syntax-ns#"
   xmlns:svg="http://www.w3.org/2000/svg"
   xmlns="http://www.w3.org/2000/svg"
   xmlns:sodipodi="http://sodipodi.sourceforge.net/DTD/sodipodi-0.dtd"
   xmlns:inkscape="http://www.inkscape.org/namespaces/inkscape"
   aria-hidden="true"
   focusable="false"
   data-prefix="fas"
   data-icon="viruses"
   class="svg-inline--fa fa-viruses fa-w-20"
   role="img"
   viewBox="0 0 675.49298 521.91547"
   version="1.1"
   id="svg4"
   sodipodi:docname="viruses-solid.svg"
   inkscape:export-filename="C:\Users\seedp\Documents\GitHub\Manne-COVID-19\images\viruses-solid.png"
   inkscape:export-xdpi="22.5"
   inkscape:export-ydpi="22.5"
   width="675.49298"
   height="521.91547"
   inkscape:version="0.92.0 r15299">
  <metadata
     id="metadata10">
    <rdf:RDF>
      <cc:Work
         rdf:about="">
        <dc:format>image/svg+xml</dc:format>
        <dc:type
           rdf:resource="http://purl.org/dc/dcmitype/StillImage" />
        <dc:title></dc:title>
      </cc:Work>
    </rdf:RDF>
  </metadata>
  <defs
     id="defs8" />
  <sodipodi:namedview
     pagecolor="#ffffff"
     bordercolor="#666666"
     borderopacity="1"
     objecttolerance="10"
     gridtolerance="10"
     guidetolerance="10"
     inkscape:pageopacity="0"
     inkscape:pageshadow="2"
     inkscape:window-width="1717"
     inkscape:window-height="922"
     id="namedview6"
     showgrid="false"
     fit-margin-top="0"
     fit-margin-left="0"
     fit-margin-right="0"
     fit-margin-bottom="0"
     inkscape:zoom="0.44375"
     inkscape:cx="74.929576"
     inkscape:cy="256"
     inkscape:window-x="0"
     inkscape:window-y="30"
     inkscape:window-maximized="0"
     inkscape:current-layer="svg4" />
  <path
     d="m 659.49296,361.91549 h -12.12 c -28.51,0 -42.79,-34.47 -22.63,-54.63 l 8.58,-8.57 a 16.001826,16.001826 0 1 0 -22.63,-22.63 l -8.57,8.58 c -20.16,20.16 -54.63,5.88 -54.63,-22.63 v -12.12 a 16,16 0 0 0 -32,0 v 12.12 c 0,28.51 -34.47,42.79 -54.63,22.63 l -8.57,-8.58 a 16.001826,16.001826 0 0 0 -22.63,22.63 l 8.58,8.57 c 20.16,20.16 5.88,54.63 -22.63,54.63 h -12.12 a 16,16 0 0 0 0,32 h 12.12 c 28.51,0 42.79,34.47 22.63,54.63 l -8.58,8.57 a 16.001826,16.001826 0 1 0 22.63,22.63 l 8.57,-8.58 c 20.16,-20.16 54.63,-5.88 54.63,22.63 v 12.12 a 16,16 0 0 0 32,0 v -12.12 c 0,-28.51 34.47,-42.79 54.63,-22.63 l 8.57,8.58 a 16.001826,16.001826 0 1 0 22.63,-22.63 l -8.58,-8.57 c -20.16,-20.16 -5.88,-54.63 22.63,-54.63 h 12.12 a 16,16 0 0 0 0,-32 z m -144,32 a 32,32 0 1 1 32,-32 32,32 0 0 1 -32,32 z m -133.49,-170.67 h 16.16 a 21.33,21.33 0 0 0 0,-42.66 h -16.16 c -38,0 -57.05,-46 -30.17,-72.84 l 11.43,-11.439997 a 21.33,21.33 0 0 0 -30.17,-30.16 l -11.43,11.43 c -26.88,26.879997 -72.84,7.85 -72.84,-30.17 v -16.16 a 21.33,21.33 0 0 0 -42.66,0 v 16.16 c 0,38 -46,57.049997 -72.84,30.17 l -11.43,-11.43 a 21.33,21.33 0 0 0 -30.170004,30.16 l 11.430004,11.439997 c 26.88,26.88 7.85,72.84 -30.170004,72.84 h -16.16 a 21.33,21.33 0 0 0 0,42.66 h 16.16 c 38.000004,0 57.050004,46 30.170004,72.84 l -11.430004,11.43 a 21.333413,21.333413 0 1 0 30.170004,30.17 l 11.43,-11.43 c 26.88,-26.88 72.84,-7.85 72.84,30.17 v 16.16 a 21.33,21.33 0 0 0 42.66,0 v -16.16 c 0,-38 46,-57.05 72.84,-30.17 l 11.43,11.43 a 21.333412,21.333412 0 0 0 30.17,-30.17 l -11.43,-11.43 c -26.88,-26.88 -7.85,-72.84 30.17,-72.84 z m -186.51,-21.33 a 32,32 0 1 1 32,-32 32,32 0 0 1 -32,32 z m 80,32 a 16,16 0 1 1 16,-16 16,16 0 0 1 -16,16 z"
     id="path2"
     inkscape:connector-curvature="0"
     style="fill:currentColor" />
  <path
     inkscape:connector-curvature="0"
     style="fill:#d45500"
     d="m 624.00004,352 h -12.12 c -28.51,0 -42.79,-34.47 -22.63,-54.63 l 8.58,-8.57 a 16.001826,16.001826 0 1 0 -22.63,-22.63 l -8.57,8.58 c -20.16,20.16 -54.63,5.88 -54.63,-22.63 V 240 a 16,16 0 0 0 -32,0 v 12.12 c 0,28.51 -34.47,42.79 -54.63,22.63 l -8.57,-8.58 a 16.001826,16.001826 0 0 0 -22.63,22.63 l 8.58,8.57 c 20.16,20.16 5.88,54.63 -22.63,54.63 h -12.12 a 16,16 0 0 0 0,32 h 12.12 c 28.51,0 42.79,34.47 22.63,54.63 l -8.58,8.57 a 16.001826,16.001826 0 1 0 22.63,22.63 l 8.57,-8.58 c 20.16,-20.16 54.63,-5.88 54.63,22.63 V 496 a 16,16 0 0 0 32,0 v -12.12 c 0,-28.51 34.47,-42.79 54.63,-22.63 l 8.57,8.58 a 16.001826,16.001826 0 1 0 22.63,-22.63 l -8.58,-8.57 c -20.16,-20.16 -5.88,-54.63 22.63,-54.63 h 12.12 a 16,16 0 0 0 0,-32 z m -144,32 a 32,32 0 1 1 32,-32 32,32 0 0 1 -32,32 z m -133.49,-170.67 h 16.16 a 21.33,21.33 0 0 0 0,-42.66 h -16.16 C 308.51,170.67 289.46,124.67 316.34,97.83 L 327.77004,86.39 A 21.33,21.33 0 0 0 297.6,56.23 L 286.17,67.66 C 259.29,94.54 213.33,75.51 213.33,37.49 V 21.33 a 21.33,21.33 0 0 0 -42.66,0 v 16.16 c 0,38 -46,57.05 -72.840001,30.17 l -11.43,-11.43 a 21.33,21.33 0 0 0 -30.17,30.16 l 11.43,11.44 c 26.88,26.88 7.85,72.84 -30.17,72.84 h -16.16 a 21.33,21.33 0 0 0 0,42.66 h 16.16 c 38,0 57.05,46 30.17,72.84 l -11.43,11.43 a 21.333412,21.333412 0 1 0 30.17,30.17 l 11.43,-11.43 C 124.71,289.46 170.67,308.49 170.67,346.51 v 16.16 a 21.33,21.33 0 0 0 42.66,0 v -16.16 c 0,-38 46,-57.05 72.84,-30.17 l 11.43,11.43 A 21.333426,21.333426 0 0 0 327.77004,297.6 L 316.34,286.17 c -26.88,-26.88 -7.85,-72.84 30.17004,-72.84 z M 160,192 a 32,32 0 1 1 32,-32 32,32 0 0 1 -32,32 z m 80,32 a 16,16 0 1 1 16,-16 16,16 0 0 1 -16,16 z"
     id="path2-5" />
</svg>
